<?xml version="1.0" encoding="utf-8"?>
<!-- Generator: Adobe Illustrator 24.1.1, SVG Export Plug-In . SVG Version: 6.00 Build 0)  -->
<svg version="1.1"
	 id="svg8" inkscape:version="0.92.2 (5c3e80d, 2017-08-06)" sodipodi:docname="DECTIcon.svg" xmlns:cc="http://creativecommons.org/ns#" xmlns:dc="http://purl.org/dc/elements/1.1/" xmlns:inkscape="http://www.inkscape.org/namespaces/inkscape" xmlns:rdf="http://www.w3.org/1999/02/22-rdf-syntax-ns#" xmlns:sodipodi="http://sodipodi.sourceforge.net/DTD/sodipodi-0.dtd" xmlns:svg="http://www.w3.org/2000/svg"
	 xmlns="http://www.w3.org/2000/svg" xmlns:xlink="http://www.w3.org/1999/xlink" x="0px" y="0px" viewBox="0 0 256 256"
	 style="enable-background:new 0 0 256 256;" xml:space="preserve">
<style type="text/css">
	.st0{fill:#FF00FF;}
	.st1{font-family:'Calibri-Bold';}
	.st2{font-size:126.3264px;}
	.st3{fill:#00FF00;}
</style>
<sodipodi:namedview  bordercolor="#666666" borderopacity="1.0" id="base" inkscape:current-layer="layer1" inkscape:cx="-175.33741" inkscape:cy="25.672415" inkscape:document-units="mm" inkscape:pageopacity="0.0" inkscape:pageshadow="2" inkscape:window-height="1377" inkscape:window-maximized="1" inkscape:window-width="2560" inkscape:window-x="-8" inkscape:window-y="-8" inkscape:zoom="1.4" pagecolor="#ffffff" showgrid="false" units="px">
	</sodipodi:namedview>
<text transform="matrix(0.8217 0 0 1 6.5169 108.9759)" class="st0 st1 st2">DECT</text>
<path class="st3" d="M210.7,206.5h-6.3c0,2.5-1.1,4.7-3.3,6.6c-2.2,1.9-5.3,2.9-9.3,3c-5.1-0.4-9.8-3-14.1-7.5
	c-4.3-4.6-6.6-8.5-6.9-11.8c0.2-1.4,1.1-3.6,2.8-6.8c1.7-3.1,3-5.5,3.8-7.1c4-8.5,7.6-17.1,10.7-25.8c3.2-8.7,5.9-17.5,8.2-26.3
	h-27.9l-10.6,35.1h-0.7c-1.8-9.4-6.6-17.9-14.4-25.4c-7.8-7.5-19.5-11.5-35.1-11.9c-21.5,0.6-38.3,6.1-50.3,16.6
	c-12.1,10.5-18.2,22.5-18.4,36.1c0.1,13.2,5.8,24.8,17,34.8c11.2,10.1,27.4,15.4,48.4,15.9c13.4-0.2,25.4-2.9,36.1-8
	c10.7-5.2,18.5-11.9,23.4-20.1h0.7c1.1,5.7,3.4,11.7,6.9,17.9c3.5,6.3,10.2,9.7,20.4,10.2c8.5-0.5,13.9-3.8,16.1-9.7
	C210.1,216.5,211.1,211.2,210.7,206.5z M147.5,198.4c-2.4,7.2-6.6,13.5-12.7,18.9c-6.1,5.4-14.5,8.2-25.4,8.5
	c-15.3-0.7-25.9-5.5-31.6-14.4c-5.8-8.9-8.5-17.8-8.2-26.7c-0.1-5.8,0.8-12.5,2.8-20.2c2-7.7,5.9-14.4,11.6-20.2
	c5.7-5.8,14.1-8.9,25.2-9.2c10.7,0.2,19.1,2.8,25.2,7.6c6.1,4.8,10.5,10.6,13,17.3c2.5,6.7,3.8,13,3.7,18.8
	C151,184.7,149.9,191.2,147.5,198.4z"/>
</svg>
